<mxfile host="65bd71144e">
    <diagram id="iUWNfLZDtFJKlKGd06WH" name="Page-1">
        <mxGraphModel dx="809" dy="742" grid="1" gridSize="10" guides="1" tooltips="1" connect="1" arrows="1" fold="1" page="1" pageScale="1" pageWidth="850" pageHeight="1100" math="0" shadow="0">
            <root>
                <mxCell id="0"/>
                <mxCell id="1" parent="0"/>
                <mxCell id="19" value="alt" style="shape=umlFrame;whiteSpace=wrap;html=1;width=40;height=15;" vertex="1" parent="1">
                    <mxGeometry x="10" y="290" width="530" height="320" as="geometry"/>
                </mxCell>
                <mxCell id="23" value="alt" style="shape=umlFrame;whiteSpace=wrap;html=1;width=30;height=20;" vertex="1" parent="1">
                    <mxGeometry x="30" y="350" width="480" height="190" as="geometry"/>
                </mxCell>
                <mxCell id="2" value="" style="shape=umlLifeline;participant=umlActor;perimeter=lifelinePerimeter;whiteSpace=wrap;html=1;container=1;collapsible=0;recursiveResize=0;verticalAlign=top;spacingTop=36;outlineConnect=0;" vertex="1" parent="1">
                    <mxGeometry x="120" y="200" width="20" height="450" as="geometry"/>
                </mxCell>
                <mxCell id="3" value="" style="html=1;points=[];perimeter=orthogonalPerimeter;" vertex="1" parent="2">
                    <mxGeometry x="5" y="70" width="10" height="200" as="geometry"/>
                </mxCell>
                <mxCell id="5" value="Manager" style="text;html=1;strokeColor=none;fillColor=none;align=center;verticalAlign=middle;whiteSpace=wrap;rounded=0;" vertex="1" parent="1">
                    <mxGeometry x="100" y="160" width="60" height="30" as="geometry"/>
                </mxCell>
                <mxCell id="10" value="" style="shape=umlLifeline;participant=umlBoundary;perimeter=lifelinePerimeter;whiteSpace=wrap;html=1;container=1;collapsible=0;recursiveResize=0;verticalAlign=top;spacingTop=36;outlineConnect=0;" vertex="1" parent="1">
                    <mxGeometry x="270" y="200" width="50" height="450" as="geometry"/>
                </mxCell>
                <mxCell id="17" value="" style="html=1;points=[];perimeter=orthogonalPerimeter;" vertex="1" parent="10">
                    <mxGeometry x="20" y="70" width="10" height="360" as="geometry"/>
                </mxCell>
                <mxCell id="33" value="invalid Client Details" style="html=1;verticalAlign=bottom;endArrow=open;dashed=1;endSize=8;exitX=1.099;exitY=0.858;exitDx=0;exitDy=0;exitPerimeter=0;entryX=1.016;entryY=0.926;entryDx=0;entryDy=0;entryPerimeter=0;" edge="1" parent="10" source="17" target="17">
                    <mxGeometry x="-0.2414" y="10" relative="1" as="geometry">
                        <mxPoint x="150" y="320" as="sourcePoint"/>
                        <mxPoint x="70" y="320" as="targetPoint"/>
                        <Array as="points">
                            <mxPoint x="70" y="379"/>
                            <mxPoint x="70" y="403"/>
                        </Array>
                        <mxPoint as="offset"/>
                    </mxGeometry>
                </mxCell>
                <mxCell id="11" value="RegisterClient" style="text;html=1;strokeColor=none;fillColor=none;align=center;verticalAlign=middle;whiteSpace=wrap;rounded=0;" vertex="1" parent="1">
                    <mxGeometry x="245" y="160" width="100" height="30" as="geometry"/>
                </mxCell>
                <mxCell id="13" value="" style="shape=umlLifeline;participant=umlControl;perimeter=lifelinePerimeter;whiteSpace=wrap;html=1;container=1;collapsible=0;recursiveResize=0;verticalAlign=top;spacingTop=36;outlineConnect=0;" vertex="1" parent="1">
                    <mxGeometry x="450" y="200" width="40" height="450" as="geometry"/>
                </mxCell>
                <mxCell id="20" value="" style="html=1;points=[];perimeter=orthogonalPerimeter;" vertex="1" parent="13">
                    <mxGeometry x="15" y="100" width="10" height="220" as="geometry"/>
                </mxCell>
                <mxCell id="14" value="Data Base" style="text;html=1;strokeColor=none;fillColor=none;align=center;verticalAlign=middle;whiteSpace=wrap;rounded=0;" vertex="1" parent="1">
                    <mxGeometry x="430" y="160" width="100" height="30" as="geometry"/>
                </mxCell>
                <mxCell id="15" value="" style="shape=umlLifeline;participant=umlBoundary;perimeter=lifelinePerimeter;whiteSpace=wrap;html=1;container=1;collapsible=0;recursiveResize=0;verticalAlign=top;spacingTop=36;outlineConnect=0;" vertex="1" parent="1">
                    <mxGeometry x="610" y="200" width="50" height="300" as="geometry"/>
                </mxCell>
                <mxCell id="29" value="" style="html=1;points=[];perimeter=orthogonalPerimeter;" vertex="1" parent="15">
                    <mxGeometry x="20" y="190" width="10" height="30" as="geometry"/>
                </mxCell>
                <mxCell id="16" value="ViewClientList" style="text;html=1;strokeColor=none;fillColor=none;align=center;verticalAlign=middle;whiteSpace=wrap;rounded=0;" vertex="1" parent="1">
                    <mxGeometry x="585" y="160" width="100" height="30" as="geometry"/>
                </mxCell>
                <mxCell id="18" value="1: Insert Client Details" style="html=1;verticalAlign=bottom;endArrow=block;exitX=1.093;exitY=0.054;exitDx=0;exitDy=0;exitPerimeter=0;" edge="1" parent="1" source="3" target="17">
                    <mxGeometry width="80" relative="1" as="geometry">
                        <mxPoint x="250" y="390" as="sourcePoint"/>
                        <mxPoint x="330" y="390" as="targetPoint"/>
                    </mxGeometry>
                </mxCell>
                <mxCell id="21" value="1.1: Validate Client details" style="html=1;verticalAlign=bottom;endArrow=block;exitX=0.987;exitY=0.121;exitDx=0;exitDy=0;exitPerimeter=0;" edge="1" parent="1" source="17" target="20">
                    <mxGeometry width="80" relative="1" as="geometry">
                        <mxPoint x="360" y="350" as="sourcePoint"/>
                        <mxPoint x="440" y="350" as="targetPoint"/>
                    </mxGeometry>
                </mxCell>
                <mxCell id="22" value="[validate]" style="text;html=1;align=center;verticalAlign=middle;resizable=0;points=[];autosize=1;strokeColor=none;fillColor=none;" vertex="1" parent="1">
                    <mxGeometry x="50" y="320" width="60" height="20" as="geometry"/>
                </mxCell>
                <mxCell id="24" value="[Doesnt' exits]" style="text;html=1;align=center;verticalAlign=middle;resizable=0;points=[];autosize=1;strokeColor=none;fillColor=none;" vertex="1" parent="1">
                    <mxGeometry x="30" y="380" width="90" height="20" as="geometry"/>
                </mxCell>
                <mxCell id="25" value="Sucess" style="html=1;verticalAlign=bottom;endArrow=open;dashed=1;endSize=8;exitX=0.031;exitY=0.368;exitDx=0;exitDy=0;exitPerimeter=0;" edge="1" parent="1" source="20" target="17">
                    <mxGeometry relative="1" as="geometry">
                        <mxPoint x="340" y="440" as="sourcePoint"/>
                        <mxPoint x="260" y="440" as="targetPoint"/>
                    </mxGeometry>
                </mxCell>
                <mxCell id="26" value="" style="endArrow=none;dashed=1;html=1;exitX=0.038;exitY=0.469;exitDx=0;exitDy=0;exitPerimeter=0;entryX=1;entryY=0.475;entryDx=0;entryDy=0;entryPerimeter=0;" edge="1" parent="1" source="19" target="23">
                    <mxGeometry width="50" height="50" relative="1" as="geometry">
                        <mxPoint x="280" y="470" as="sourcePoint"/>
                        <mxPoint x="330" y="420" as="targetPoint"/>
                    </mxGeometry>
                </mxCell>
                <mxCell id="27" value="Client exist" style="html=1;verticalAlign=bottom;endArrow=open;dashed=1;endSize=8;exitX=0.044;exitY=0.73;exitDx=0;exitDy=0;exitPerimeter=0;entryX=1.183;entryY=0.531;entryDx=0;entryDy=0;entryPerimeter=0;" edge="1" parent="1" source="20" target="17">
                    <mxGeometry relative="1" as="geometry">
                        <mxPoint x="475.30999999999995" y="390.9599999999999" as="sourcePoint"/>
                        <mxPoint x="310" y="390.9599999999999" as="targetPoint"/>
                    </mxGeometry>
                </mxCell>
                <mxCell id="28" value="[Else]" style="text;html=1;align=center;verticalAlign=middle;resizable=0;points=[];autosize=1;strokeColor=none;fillColor=none;" vertex="1" parent="1">
                    <mxGeometry x="50" y="460" width="50" height="20" as="geometry"/>
                </mxCell>
                <mxCell id="30" value="Redirect to ViewClientList" style="html=1;verticalAlign=bottom;endArrow=block;exitX=1.141;exitY=0.39;exitDx=0;exitDy=0;exitPerimeter=0;entryX=-0.201;entryY=0.641;entryDx=0;entryDy=0;entryPerimeter=0;" edge="1" parent="1" source="17" target="29">
                    <mxGeometry width="80" relative="1" as="geometry">
                        <mxPoint x="410" y="410" as="sourcePoint"/>
                        <mxPoint x="490" y="410" as="targetPoint"/>
                    </mxGeometry>
                </mxCell>
                <mxCell id="31" value="" style="endArrow=none;dashed=1;html=1;exitX=0.001;exitY=0.85;exitDx=0;exitDy=0;exitPerimeter=0;entryX=1.002;entryY=0.846;entryDx=0;entryDy=0;entryPerimeter=0;" edge="1" parent="1" source="19" target="19">
                    <mxGeometry width="50" height="50" relative="1" as="geometry">
                        <mxPoint x="250" y="480" as="sourcePoint"/>
                        <mxPoint x="300" y="430" as="targetPoint"/>
                    </mxGeometry>
                </mxCell>
                <mxCell id="32" value="[Else]" style="text;html=1;align=center;verticalAlign=middle;resizable=0;points=[];autosize=1;strokeColor=none;fillColor=none;" vertex="1" parent="1">
                    <mxGeometry x="40" y="570" width="50" height="20" as="geometry"/>
                </mxCell>
            </root>
        </mxGraphModel>
    </diagram>
</mxfile>